<svg width="40" height="40" viewBox="0 0 40 40" fill="none" xmlns="http://www.w3.org/2000/svg">
<path d="M25.6 8.8001H29.6C30.0416 8.8001 30.4 8.4417 30.4 8.0001V2.6105C30.4 2.1913 30.0776 1.8425 29.66 1.8129C28.3872 1.7225 25.9008 1.6001 24.1128 1.6001C19.2 1.6001 16 4.5441 16 9.8945V15.2001H10.4C9.95837 15.2001 9.59998 15.5585 9.59998 16.0001V21.6001C9.59998 22.0417 9.95837 22.4001 10.4 22.4001H16V37.6001C16 38.0417 16.3584 38.4001 16.8 38.4001H22.4C22.8416 38.4001 23.2 38.0417 23.2 37.6001V22.4001H28.9776C29.3856 22.4001 29.728 22.0937 29.7728 21.6881L30.3952 16.0881C30.448 15.6145 30.0768 15.2001 29.6 15.2001H23.2V11.2001C23.2 9.8745 24.2744 8.8001 25.6 8.8001Z" fill="black"/>
</svg>
