<svg width="40" height="40" viewBox="0 0 40 40" fill="none" xmlns="http://www.w3.org/2000/svg">
<path d="M12.8 2.3999C7.06402 2.3999 2.40002 7.0639 2.40002 12.7999V27.1999C2.40002 32.9359 7.06402 37.5999 12.8 37.5999H27.2C32.936 37.5999 37.6 32.9359 37.6 27.1999V12.7999C37.6 7.0639 32.936 2.3999 27.2 2.3999H12.8ZM29.6 8.7999C30.48 8.7999 31.2 9.5199 31.2 10.3999C31.2 11.2799 30.48 11.9999 29.6 11.9999C28.72 11.9999 28 11.2799 28 10.3999C28 9.5199 28.72 8.7999 29.6 8.7999ZM20 11.1999C24.856 11.1999 28.8 15.1439 28.8 19.9999C28.8 24.8559 24.856 28.7999 20 28.7999C15.144 28.7999 11.2 24.8559 11.2 19.9999C11.2 15.1439 15.144 11.1999 20 11.1999ZM20 12.7999C16.032 12.7999 12.8 16.0319 12.8 19.9999C12.8 23.9679 16.032 27.1999 20 27.1999C23.968 27.1999 27.2 23.9679 27.2 19.9999C27.2 16.0319 23.968 12.7999 20 12.7999Z" fill="black"/>
</svg>
