<svg width="40" height="40" viewBox="0 0 40 40" fill="none" xmlns="http://www.w3.org/2000/svg">
<path d="M20.0001 5.3335C14.4188 5.3335 7.17456 6.73194 7.17456 6.73194L7.15633 6.75278C4.61431 7.15932 2.66675 9.34367 2.66675 12.0002V20.0002V20.0028V28.0002V28.0028C2.67187 30.6236 4.58048 32.8524 7.16934 33.2606L7.17456 33.2684C7.17456 33.2684 14.4188 34.6694 20.0001 34.6694C25.5814 34.6694 32.8256 33.2684 32.8256 33.2684L32.8282 33.2658C35.4201 32.8584 37.3307 30.6264 37.3334 28.0028V28.0002V20.0028V20.0002V12.0002C37.3296 9.37833 35.4207 7.14814 32.8308 6.73976L32.8256 6.73195C32.8256 6.73195 25.5814 5.3335 20.0001 5.3335ZM16.0001 13.8647L26.6668 20.0002L16.0001 26.1356V13.8647Z" fill="black"/>
</svg>
